<svg xmlns="http://www.w3.org/2000/svg" width="280" height="120" fill="#b4936f"><path d="M138.187.866v8.156h-19.903V.866zM138.199 26.285h-8.157V11.968h8.157zM126.429 26.287h-8.148V11.968h8.148zM94.765 26.287V18.13h19.903v8.157zM94.753.869h8.156v14.317h-8.156zM106.523.866h8.147v14.32h-8.147zM185.234.866v8.156h-19.902V.866zM185.247 26.285h-8.157V11.968h8.157zM173.477 26.287h-8.148V11.968h8.148zM141.813 26.287V18.13h19.903v8.157zM141.8.869h8.157v14.317H141.8zM153.57.866h8.147v14.32h-8.147zM258.6 53.437h-.003l.003 9.185-10.973-9.185h-2.16v13.577h2.841v-9.222l10.972 9.222h2.16V53.437zM34.21 53.437H18.559v2.313h6.405v11.264h2.841V55.75h6.405zM130.178 53.437L124.6 63.478l-5.569-10.041h-3.403v13.577H118.47V57.53l5.296 9.484h1.676l5.296-9.484v9.484h2.843V53.437zM226.687 64.458h-10.419v-8.692h10.419v8.692zm-13.26-11.021v13.577h16.104V53.437h-16.104zM96.038 64.458H85.619v-8.692h10.419v8.692zm-13.26-11.021v13.577h16.104V53.437H82.778zM185.262 55.766h11.79v-2.329h-14.631v7.802h11.79v3.219h-11.79v2.556h14.631V58.911h-11.79zM62.529 53.437v5.469h-9.864v-5.469h-2.84v13.577h2.84v-5.775h9.864v5.775h2.852V53.437zM153.751 59.301V55.75h8.521v3.551h-8.521zm-2.83-5.865v13.578h2.83v-5.288h11.354V53.436h-14.184zM46.459 83.896v-2.364h-5.723v2.364h5.723zm-7.285 3.818v-7.466h8.847v4.984h-7.285v2.481h-1.562v.001zM60.526 87.714h-8.227v-7.466h1.562v6.065h6.665zM69.725 81.863l-1.711 3.166h3.413l-1.702-3.166zm-2.396 4.45l-.76 1.4h-1.765l4.022-7.466h1.786l4.022 7.466H72.87l-.759-1.4h-4.782zM84.081 84.526v3.188h-1.562v-3.188l-3.605-4.278h1.851l2.535 3.006 2.525-3.006h1.85zM96.875 81.863l-1.712 3.166h3.412l-1.7-3.166zm-2.397 4.45l-.76 1.4h-1.765l4.022-7.466h1.787l4.022 7.466h-1.766l-.759-1.4h-4.781zM122.997 86.313l1.112-.523v-3.734l-1.123-.523h-4.664v4.781h4.675v-.001zm2.674.299l-2.364 1.102h-6.547v-7.466h6.515l2.396 1.123v5.241zM138.176 86.313v1.401h-8.226v-7.466h8.226v1.283h-6.664v1.733h5.092v1.274h-5.092v1.775zM150.681 87.714h-8.227v-7.466h1.563v6.065h6.664zM173.883 87.714h-8.227v-7.466h8.227v1.283h-6.664v4.782h6.664zM183.083 81.863l-1.713 3.166h3.413l-1.7-3.166zm-2.396 4.45l-.76 1.4h-1.765l4.021-7.466h1.787l4.021 7.466h-1.765l-.759-1.4h-4.78zM193.833 81.531v1.732h5.724v-1.732h-5.724zm5.584 3.007l1.701 3.177h-1.766l-1.723-3.177h-3.798v3.177h-1.562v-7.467h8.848v4.29h-1.7zM215.26 87.714h-1.562v-5.209l-2.911 5.209h-.919l-2.91-5.209v5.209h-1.562v-7.466h1.873l3.059 5.52 3.07-5.52h1.862zM227.764 86.313v1.401h-8.225v-7.466h8.225v1.283h-6.663v1.733h5.091v1.274h-5.091v1.775zM240.826 87.714h-1.187l-6.035-5.069v5.069h-1.561v-7.466h1.187l6.034 5.049v-5.049h1.562zM279 119.134H1V100.49h278z"/><path fill="#262626" d="M17.588 113.143h-1.416v-4.723l-2.638 4.723H12.7l-2.638-4.723v4.723H8.646v-6.769h1.697l2.774 5.004 2.783-5.004h1.688zM25.735 107.838l-1.552 2.87h3.094l-1.542-2.87zm-2.172 4.034l-.688 1.271h-1.601l3.647-6.77h1.62l3.646 6.77h-1.601l-.688-1.271h-4.335zM35.289 106.374v6.769h-1.416v-6.769zM48.1 113.143h-1.076l-5.47-4.597v4.597h-1.416v-6.769h1.076l5.471 4.576v-4.576H48.1zM65.549 113.143h-1.416v-2.88h-4.917v2.88H57.8v-6.769h1.416v2.734h4.917v-2.734h1.416zM71.814 107.537v4.335h5.189v-4.335h-5.189zm6.606 5.606h-8.021v-6.77h8.021v6.77zM91.29 113.143h-8.021v-6.769h1.416v5.498h5.189v-5.498h1.416zM103.433 109.108v4.035h-7.294v-1.271h5.878v-1.609h-5.878v-3.889h7.294v1.163h-5.878v1.571zM115.741 111.872v1.271h-7.459v-6.769h7.459v1.163h-6.042v1.571h4.616v1.155h-4.616v1.609zM151.065 110.263h-4.243v1.612h4.243l1.009-.477v-.66l-1.009-.475zm-.009-2.728h-4.233v1.572h4.243l1.009-.476v-.621l-1.019-.475zm2.436 1.718l-.922.428.922.437v2.029l-2.146 1h-5.941v-6.776h5.912l2.175 1.019v1.863zM165.812 111.875v1.271h-7.467v-6.776h7.467v1.165h-6.049v1.573h4.622v1.155h-4.622v1.612zM174.159 107.836l-1.554 2.873h3.097l-1.543-2.873zm-2.175 4.039l-.689 1.271h-1.602l3.649-6.776h1.622l3.65 6.776h-1.602l-.689-1.271h-4.339zM189.963 113.146h-7.466v-6.776h7.466v1.165h-6.048v4.34h6.048zM202.573 113.146h-1.417v-2.883h-4.923v2.883h-1.418v-6.776h1.418v2.738h4.923v-2.738h1.417zM220.549 113.146h-1.417v-2.883h-4.923v2.883h-1.417v-6.776h1.417v2.738h4.923v-2.738h1.417zM226.819 107.535v4.34h5.194v-4.34h-5.194zm6.613 5.611h-8.03v-6.776h8.03v6.776zM246.313 113.146h-8.03v-6.776h1.418v5.505h5.195v-5.505h1.417zM258.467 109.108v4.038h-7.302v-1.271h5.884v-1.612h-5.884v-3.893h7.302v1.165h-5.884v1.573zM270.785 111.875v1.271h-7.466v-6.776h7.466v1.165h-6.049v1.573h4.622v1.155h-4.622v1.612z"/><path fill="none" stroke="#262626" stroke-width="1.5" stroke-miterlimit="10" d="M131 105.483v8.658"/></svg>